<?xml version="1.0" standalone="no"?>
<!DOCTYPE svg PUBLIC "-//W3C//DTD SVG 20010904//EN"
 "http://www.w3.org/TR/2001/REC-SVG-20010904/DTD/svg10.dtd">
<svg version="1.0" xmlns="http://www.w3.org/2000/svg"
 width="225.000000pt" height="207.000000pt" viewBox="0 0 225.000000 207.000000"
 preserveAspectRatio="xMidYMid meet">

<g transform="translate(0.000000,207.000000) scale(0.100000,-0.100000)"
fill="#000000" stroke="none">
<path d="M1705 1865 c-61 -21 -163 -143 -227 -270 -48 -95 -174 -502 -203
-655 -40 -217 -53 -244 -74 -157 -7 29 -17 66 -22 82 -5 17 -22 77 -39 135
-17 58 -38 119 -46 137 -8 17 -14 37 -14 43 0 19 -100 218 -135 270 -109 160
-180 232 -283 284 -53 27 -118 34 -152 16 -51 -27 -81 -113 -96 -272 -9 -102
2 -126 81 -183 35 -24 95 -74 134 -110 39 -36 77 -65 84 -65 7 0 23 18 37 40
14 22 28 40 31 40 13 0 70 -95 118 -195 84 -174 191 -552 207 -728 9 -98 25
-99 71 -7 47 97 103 281 163 545 12 50 28 119 36 155 51 221 132 447 183 510
81 101 163 74 269 -89 59 -90 60 -90 113 23 80 172 86 216 36 287 -68 98 -142
161 -202 173 -16 3 -48 -1 -70 -9z"/>
</g>
</svg>
