<?xml version="1.0" standalone="no"?>
<!DOCTYPE svg PUBLIC "-//W3C//DTD SVG 20010904//EN"
 "http://www.w3.org/TR/2001/REC-SVG-20010904/DTD/svg10.dtd">
<svg version="1.0" xmlns="http://www.w3.org/2000/svg"
 width="197.000000pt" height="176.000000pt" viewBox="0 0 197.000000 176.000000"
 preserveAspectRatio="xMidYMid meet">

<g transform="translate(0.000000,176.000000) scale(0.100000,-0.100000)"
fill="#000000" stroke="none">
<path d="M1064 1575 c-97 -59 -231 -215 -396 -465 -105 -160 -112 -175 -113
-247 0 -54 4 -66 31 -99 17 -21 60 -61 95 -88 35 -27 65 -52 67 -56 3 -7 -150
-95 -218 -126 -47 -22 -88 -73 -109 -137 -18 -58 -41 -156 -41 -177 0 -22 34
-7 103 43 70 52 183 127 191 127 3 0 37 19 78 43 80 48 285 149 388 192 36 15
83 35 105 45 22 10 94 36 160 59 66 23 123 45 126 49 7 7 116 264 126 295 11
34 -38 16 -272 -103 -129 -66 -244 -120 -254 -120 -30 0 -170 75 -242 129 -54
41 -71 61 -93 110 -23 51 -25 63 -14 86 15 34 159 137 220 158 45 15 48 15 73
-5 30 -23 55 -78 55 -120 0 -37 17 -33 48 12 32 47 59 143 67 237 8 88 -3 124
-52 169 -35 32 -59 30 -129 -11z"/>
</g>
</svg>
