<?xml version="1.0" standalone="no"?>
<!DOCTYPE svg PUBLIC "-//W3C//DTD SVG 20010904//EN"
 "http://www.w3.org/TR/2001/REC-SVG-20010904/DTD/svg10.dtd">
<svg version="1.0" xmlns="http://www.w3.org/2000/svg"
 width="212.000000pt" height="168.000000pt" viewBox="0 0 212.000000 168.000000"
 preserveAspectRatio="xMidYMid meet">

<g transform="translate(0.000000,168.000000) scale(0.100000,-0.100000)"
fill="#000000" stroke="none">
<path d="M1558 1507 c-69 -150 -82 -209 -59 -255 5 -9 32 -89 61 -177 29 -88
70 -203 91 -255 20 -52 43 -121 50 -153 18 -82 7 -91 -116 -95 -110 -4 -161
14 -216 76 -64 73 -90 155 -129 402 -11 69 -26 156 -35 193 -30 136 -115 352
-136 345 -6 -2 -19 -26 -28 -53 -10 -28 -27 -69 -39 -92 -54 -105 -63 -163
-32 -217 10 -20 34 -93 52 -163 28 -111 33 -145 33 -253 0 -140 -8 -169 -63
-239 -57 -70 -114 -101 -188 -101 -114 0 -183 52 -204 155 -13 62 -11 95 15
295 23 181 10 312 -47 458 -22 55 -42 67 -54 30 -4 -13 -31 -74 -60 -136 l-54
-113 25 -62 c48 -118 53 -216 25 -460 -10 -83 -10 -128 -1 -196 14 -112 31
-151 86 -206 52 -52 98 -74 177 -82 51 -5 65 -2 122 26 120 59 206 181 250
356 12 47 25 87 30 88 4 1 14 -14 21 -33 49 -133 100 -218 160 -268 20 -16 62
-42 93 -58 48 -23 69 -28 137 -28 90 0 126 14 175 68 80 87 128 203 154 371
12 76 13 103 1 175 -7 47 -20 105 -29 130 -50 133 -139 403 -152 460 -28 118
-45 170 -57 170 -7 -1 -33 -47 -59 -103z"/>
</g>
</svg>
