<?xml version="1.0" standalone="no"?>
<!DOCTYPE svg PUBLIC "-//W3C//DTD SVG 20010904//EN"
 "http://www.w3.org/TR/2001/REC-SVG-20010904/DTD/svg10.dtd">
<svg version="1.0" xmlns="http://www.w3.org/2000/svg"
 width="280.000000pt" height="221.000000pt" viewBox="0 0 280.000000 221.000000"
 preserveAspectRatio="xMidYMid meet">

<g transform="translate(0.000000,221.000000) scale(0.100000,-0.100000)"
fill="#000000" stroke="none">
<path d="M1010 1990 c-83 -8 -108 -19 -153 -67 -36 -38 -140 -183 -171 -239
-9 -16 -25 -42 -35 -59 -10 -16 -33 -57 -51 -90 -18 -33 -44 -77 -57 -97 -12
-21 -23 -40 -23 -43 0 -3 -23 -42 -52 -88 -70 -112 -94 -167 -77 -178 7 -4 16
-6 20 -3 21 13 183 36 314 44 206 13 750 -14 821 -40 14 -6 36 -10 49 -10 22
0 58 -10 193 -52 107 -34 108 -32 -283 -234 -178 -91 -290 -144 -515 -244 -36
-16 -132 -59 -215 -95 -82 -37 -161 -72 -175 -79 -206 -104 -255 -132 -287
-162 -54 -51 -37 -61 79 -45 51 7 109 17 128 22 19 5 100 20 180 33 144 24
174 29 465 66 282 37 348 60 474 169 64 56 258 252 362 366 30 33 84 91 120
130 96 103 141 154 181 210 142 198 247 389 255 467 6 56 -18 113 -60 138 -96
60 -456 127 -882 164 -190 17 -514 26 -605 16z"/>
</g>
</svg>
