<?xml version="1.0" standalone="no"?>
<!DOCTYPE svg PUBLIC "-//W3C//DTD SVG 20010904//EN"
 "http://www.w3.org/TR/2001/REC-SVG-20010904/DTD/svg10.dtd">
<svg version="1.0" xmlns="http://www.w3.org/2000/svg"
 width="214.000000pt" height="179.000000pt" viewBox="0 0 214.000000 179.000000"
 preserveAspectRatio="xMidYMid meet">

<g transform="translate(0.000000,179.000000) scale(0.100000,-0.100000)"
fill="#000000" stroke="none">
<path d="M1169 1623 c-9 -10 -44 -67 -79 -128 -36 -60 -97 -159 -136 -220 -74
-114 -167 -290 -204 -384 -26 -67 -60 -211 -60 -255 0 -71 47 -168 109 -224
71 -65 189 -91 319 -72 144 21 208 58 274 158 75 113 128 279 128 395 0 43
-19 106 -46 159 -26 50 -154 170 -247 232 -49 33 -91 66 -95 74 -3 8 1 29 8
46 7 17 25 66 41 109 25 69 27 81 16 103 -12 24 -14 24 -28 7z m-69 -631 c46
-32 129 -100 183 -153 118 -114 118 -123 10 -161 -55 -19 -89 -23 -178 -23
-121 0 -161 12 -216 67 -26 26 -29 36 -29 91 0 64 32 149 81 218 26 38 38 34
149 -39z"/>
</g>
</svg>
